PathFileType	4	(X/Y/Z)	C:/Users/beibeiliu/ov580/test_trc/User1\sequence.11_training_dense_left.trc
DataRate	CameraRate	NumFrames	NumMarkers	Units	OrigDataRate	OrigDataStartFrame	OrigNumFrames
120	120	12	19	mm	120	1	52
Frame#	Time	ThumbCMC			ThumbMCP			ThumbIP			ThumbTip			IndexMCP			IndexPIP			IndexTip			MiddleMCP			MiddlePIP			MiddleTip			RingMCP			RingPIP			RingTip			PinkyMCP			PinkyPIP			PinkyTip			BackHand1			BackHand2			BackHand3	
		X0	Y0	Z0	X1	Y1	Z1	X2	Y2	Z2	X3	Y3	Z3	X4	Y4	Z4	X5	Y5	Z5	X6	Y6	Z6	X7	Y7	Z7	X8	Y8	Z8	X9	Y9	Z9	X10	Y10	Z10	X11	Y11	Z11	X12	Y12	Z12	X13	Y13	Z13	X14	Y14	Z14	X15	Y15	Z15	X16	Y16	Z16	X17	Y17	Z17	X18	Y18	Z18	
0	0	-114.747	18.4504	134.172	-93.736	4.75273	109.62	-78.047	1.2747	84.6793	-71.568	-7.24525	57.0359	-123.084	51.3346	53.594	-116.681	52.86	26.8098	-111.547	47.6796	-5.3875	-148.668	51.5634	41.2994	-146.295	53.4703	11.1108	-143.683	47.1289	-20.3289	-164.634	30.8663	36.1883	-158.442	18.2273	10.7647	-148.363	-8.48723	-1.21988	-187.747	9.286	47.7077	-179.711	-3.03566	29.5267	-156.224	-20.8003	18.5369	-178.236	37.6771	96.1806	-186.148	30.1456	134.211	-149.776	43.6052	121.221	
1	0.00833333	-119.439	23.6373	127.305	-95.524	8.9916	103.449	-88.7681	1.57682	77.621	-84.2359	-11.8945	50.6729	-131.256	52.4559	47.4384	-126.003	53.61	18.1023	-121.087	47.8701	-10.514	-156.896	49.6984	34.8233	-155.88	50.8319	9.42406	-153.881	43.2542	-24.6545	-172.293	21.1766	33.1664	-154.926	3.02285	11.832	-137.397	-28.7136	20.4928	-186.524	0.66618	49.0966	-168.24	-21.5532	31.8701	-143.593	-33.6925	39.1659	-185.997	30.5536	94.5103	-190.175	28.7534	127.922	-155.42	44.5237	114.94	
2	0.0166667	-125.077	32.7529	124.096	-99.7902	17.8485	101.305	-90.0758	5.5057	69.9904	-92.4922	-11.179	52.8901	-135.877	52.9958	37.3196	-135.082	48.7162	13.8046	-127.05	45.8103	-11.7648	-166.622	37.9689	31.152	-162.954	36.2764	1.44402	-156.686	28.178	-28.2418	-165.557	8.93029	32.526	-139.718	-16.9133	22.2116	-125.983	-31.3455	48.3503	-177.788	-16.5394	47.351	-151.138	-33.3097	45.7287	-130.915	-28.938	68.1421	-191.076	22.1297	88.0978	-193.636	22.243	122.33	-166.093	43.6723	110.532	
3	0.025	-133.399	50.4525	114.158	-105.573	37.3404	94.5581	-94.8964	21.2416	70.516	-93.0331	-1.54579	57.1343	-145.978	45.787	30.0386	-138.219	44.0566	4.3368	-133.768	32.4311	-15.5342	-164.416	23.9162	26.0923	-156.972	15.3362	-4.88999	-146.263	3.35762	-30.1545	-149.427	-5.54511	32.8351	-117.906	-19.5083	38.4688	-110.033	-15.8671	67.2561	-155.293	-23.827	54.6318	-125.099	-26.8954	62.9169	-118.958	-11.7478	90.3943	-187.293	9.40916	80.6991	-197.54	10.2665	115.646	-175.886	42.8601	99.3631	
4	0.0333333	-157.844	62.2916	109.784	-123.496	66.0765	86.0049	-104.296	52.1415	67.9253	-94.1585	23.0214	60.8314	-156.349	45.3335	25.9996	-146.997	39.6138	4.41559	-137.065	33.8235	-18.9372	-155.462	15.0794	17.5062	-139.537	8.87762	-5.80168	-125.171	0.66176	-25.0217	-130.37	-5.94334	41.0949	-98.869	6.0168	53.8573	-109.363	13.8915	84.5805	-126.817	-20.5896	65.0662	-107.958	-2.41455	75.9706	-119.124	15.5318	101.599	-180.503	-1.85124	79.717	-192.637	5.91699	111.614	-186.228	35.4129	91.9057	
5	0.0416667	-183.646	69.923	98.7897	-156.44	86.4569	78.447	-131.8	75.6161	59.6587	-109.699	55.308	58.4791	-174.471	49.0721	22.0041	-160.982	42.6103	-3.61252	-153.083	41.7745	-24.1753	-153.373	19.6747	17.8838	-139.038	22.0881	-4.08121	-118.297	18.1625	-24.4466	-125.491	16.7214	41.8923	-103.952	39.7589	58.1019	-118.844	42.9781	84.7972	-119.549	7.22683	63.9721	-108.929	29.9889	76.0252	-128.906	39.0779	101.056	-176.95	3.03671	81.4587	-188.691	2.62785	112.774	-198.367	34.6628	88.5459	
6	0.05	-204.187	80.0724	98.5412	-180.679	101.185	74.4037	-158.075	94.6018	58.9553	-134.813	77.2105	52.409	-195.422	56.7647	16.6193	-191.246	59.5513	-3.2966	-182.206	55.4236	-28.4517	-170.958	35.6701	13.0224	-161.413	42.2446	-7.29952	-143.103	43.492	-34.2996	-146.92	39.2409	34.5078	-124.511	62.3895	47.8148	-141.343	63.6182	80.2003	-130.546	27.4293	56.6835	-124.471	53.2831	73.8125	-144.752	55.4481	96.6464	-185.16	15.6742	78.9835	-193.731	9.49762	112.531	-211.407	37.2474	89.968	
7	0.0583333	-206.914	89.0467	106.403	-185.075	105.961	75.6687	-168.231	96.3212	46.9701	-148.977	73.0892	39.0269	-222.175	67.0085	21.9012	-220.871	68.2423	-5.78034	-215.175	62.6335	-28.3253	-206.207	42.0742	12.2839	-198.91	44.1032	-12.1137	-186.017	47.7102	-44.9467	-173.52	39.3602	26.2015	-144.108	54.7638	35.7038	-152.463	58.4409	66.9562	-154.097	25.6431	45.7085	-142.443	47.3433	58.5579	-160.364	54.5074	88.2893	-204.467	17.9434	79.3266	-209.355	17.8858	112.065	-226.855	51.6248	94.2163	
8	0.0666667	-184.203	87.3484	106.783	-164.178	91.3813	73.3106	-160.922	78.8749	47.2244	-161.734	49.3041	33.7482	-221.591	85.7854	31.7401	-224.618	85.9966	0.574554	-222.252	85.6551	-26.9989	-227.919	59.3392	22.4371	-226.902	56.1746	-10.8628	-219.768	55.6045	-40.0306	-197.723	35.0031	22.4261	-164.615	34.6164	24.8012	-165.291	43.0178	59.2792	-188.605	11.7756	42.457	-162.128	25.8289	48.8386	-167.357	40.9193	80.0494	-224.642	33.1735	81.2855	-223.158	28.5021	118.413	-221.064	66.7568	102.021	
9	0.075	-155.421	63.0386	110.191	-134.664	59.0564	72.0226	-141.431	50.4319	44.7181	-163.253	30.7915	33.501	-184.937	97.2603	36.1217	-189.658	98.6355	11.373	-190.71	98.9805	-18.0104	-211.262	85.6725	28.1812	-214.363	89.4231	0.213882	-216.002	86.8695	-30.5111	-204.335	49.9309	22.5942	-183.966	24.7864	16.5732	-173.432	23.1004	50.3622	-211.878	24.879	41.2106	-182.526	11.5969	44.717	-175.223	23.8486	72.957	-224.245	53.2272	86.3502	-222.284	47.6777	118.555	-194.575	74.9718	108.553	
10	0.0833333	-137.361	42.3607	110.435	-124.694	27.1935	75.4715	-137.824	21.0786	47.2175	-165.369	12.4329	33.5087	-153.509	81.7097	35.6329	-151.2	84.3909	10.6715	-154.43	81.7982	-19.8697	-183.902	85.515	29.4484	-185.237	89.2697	4.69159	-192.878	89.6824	-25.828	-199.192	48.9282	28.2162	-186.336	19.7288	18.4988	-174.462	8.80514	51.4026	-210.27	32.8701	44.9207	-191.382	7.11704	45.0485	-178.113	10.1042	73.6609	-206.348	63.2592	90.8306	-205.299	56.8605	121.441	-171.596	69.7603	110.185	
11	0.0916667	-131.133	27.991	120.878	-113.67	5.13186	88.1657	-126.05	-1.94146	59.5261	-153.384	-5.56228	47.1411	-127.774	56.6403	37.0948	-124.086	52.7291	10.9612	-125.933	47.1532	-12.3216	-158.853	65.0043	30.7457	-159.965	64.9528	1.51405	-161.476	63.6296	-29.973	-181.352	36.1263	33.5272	-172.711	3.71894	26.7896	-169.697	-9.53722	58.0876	-194.665	20.9494	46.8566	-184.704	-2.09709	53.0095	-172.966	-2.73758	86.0247	-188.72	62.0911	89.2962	-193.573	59.4801	124.054	-151.682	60.6327	110.265	
